# 3ds Max Wavefront OBJ Exporter v0.97b - (c)2007 guruware
# File Created: 13.12.2015 17:02:38

#
# object Cylinder001
#

v  21.2193 0.4827 0.0000
v  17.3996 12.2384 0.0000
v  17.3996 12.2384 8.5809
v  21.2193 0.4827 8.5809
v  7.3996 19.5038 0.0000
v  7.3996 19.5038 8.5809
v  -4.9611 19.5038 0.0000
v  -4.9611 19.5038 8.5809
v  -14.9611 12.2384 0.0000
v  -14.9611 12.2384 8.5809
v  -18.7807 0.4827 0.0000
v  -18.7807 0.4827 8.5809
v  -14.9611 -11.2730 -0.0000
v  -14.9611 -11.2730 8.5809
v  -4.9611 -18.5384 -0.0000
v  -4.9611 -18.5384 8.5809
v  7.3996 -18.5384 -0.0000
v  7.3996 -18.5384 8.5809
v  17.3996 -11.2730 -0.0000
v  17.3996 -11.2730 8.5809
v  17.1910 0.4827 0.0000
v  14.1407 9.8706 0.0000
v  6.1548 15.6727 0.0000
v  -3.7162 15.6727 0.0000
v  -11.7021 9.8706 0.0000
v  -14.7524 0.4827 0.0000
v  -11.7021 -8.9052 -0.0000
v  -3.7163 -14.7073 -0.0000
v  6.1548 -14.7073 -0.0000
v  14.1407 -8.9052 -0.0000
v  14.1407 9.8706 2.2270
v  17.1910 0.4827 2.2270
v  1.2193 0.4827 2.2270
v  6.1548 15.6727 2.2270
v  -3.7162 15.6727 2.2270
v  -11.7021 9.8706 2.2270
v  -14.7524 0.4827 2.2270
v  -11.7021 -8.9052 2.2270
v  -3.7163 -14.7073 2.2270
v  6.1548 -14.7073 2.2270
v  14.1407 -8.9052 2.2270
v  14.1407 9.8706 8.5809
v  17.1910 0.4827 8.5809
v  6.1548 15.6727 8.5809
v  -3.7162 15.6727 8.5809
v  -11.7021 9.8706 8.5809
v  -14.7524 0.4827 8.5809
v  -11.7021 -8.9052 8.5809
v  -3.7163 -14.7073 8.5809
v  6.1548 -14.7073 8.5809
v  14.1407 -8.9052 8.5809
v  17.1910 0.4827 6.3540
v  14.1407 9.8706 6.3540
v  1.2193 0.4827 6.3540
v  6.1548 15.6727 6.3540
v  -3.7162 15.6727 6.3540
v  -11.7021 9.8706 6.3540
v  -14.7524 0.4827 6.3540
v  -11.7021 -8.9052 6.3540
v  -3.7163 -14.7073 6.3540
v  6.1548 -14.7073 6.3540
v  14.1407 -8.9052 6.3540
# 62 vertices

vn 1.0000 0.0000 0.0000
vn 0.8090 0.5878 0.0000
vn 1.0000 0.0000 -0.0000
vn 0.3090 0.9511 -0.0000
vn -0.3090 0.9511 -0.0000
vn -0.8090 0.5878 0.0000
vn -1.0000 -0.0000 -0.0000
vn -1.0000 -0.0000 0.0000
vn -0.8090 -0.5878 -0.0000
vn -0.3090 -0.9511 0.0000
vn 0.3090 -0.9511 0.0000
vn 0.8090 -0.5878 -0.0000
vn 0.0000 0.0000 -1.0000
vn -0.0000 0.0000 -1.0000
vn 0.0000 -0.0000 1.0000
vn -0.9511 -0.3090 -0.0000
vn -0.9511 0.3090 0.0000
vn -0.5878 0.8090 0.0000
vn 0.0000 1.0000 0.0000
vn 0.5878 0.8090 0.0000
vn 0.9511 0.3090 0.0000
vn 0.9511 -0.3090 -0.0000
vn 0.5878 -0.8090 -0.0000
vn 0.0000 -1.0000 -0.0000
vn -0.5878 -0.8090 -0.0000
# 25 vertex normals

vt 0.7500 0.0000 1.0000
vt 0.8500 0.0000 1.0000
vt 0.8500 1.0000 1.0000
vt 0.7500 1.0000 1.0000
vt 0.9500 0.0000 1.0000
vt 0.9500 1.0000 1.0000
vt 1.0500 0.0000 1.0000
vt 1.0500 1.0000 1.0000
vt 0.0500 0.0000 1.0000
vt 0.1500 0.0000 1.0000
vt 0.1500 1.0000 1.0000
vt 0.0500 1.0000 1.0000
vt 0.2500 0.0000 1.0000
vt 0.2500 1.0000 1.0000
vt 0.3500 0.0000 1.0000
vt 0.3500 1.0000 1.0000
vt 0.4500 0.0000 1.0000
vt 0.4500 1.0000 1.0000
vt 0.5500 0.0000 1.0000
vt 0.5500 1.0000 1.0000
vt 0.6500 0.0000 1.0000
vt 0.6500 1.0000 1.0000
vt 0.2061 0.9045 -0.2500
vt 0.5000 1.0000 -0.2500
vt 0.5000 0.7500 -0.2500
vt 0.3531 0.7023 -0.2500
vt 0.0245 0.6545 -0.2500
vt 0.2622 0.5773 -0.2500
vt 0.0245 0.3455 -0.2500
vt 0.2622 0.4227 -0.2500
vt 0.2061 0.0955 -0.2500
vt 0.3531 0.2977 -0.2500
vt 0.5000 0.0000 -0.2500
vt 0.5000 0.2500 -0.2500
vt 0.7939 0.0955 -0.2500
vt 0.6469 0.2977 -0.2500
vt 0.9755 0.3455 -0.2500
vt 0.7378 0.4227 -0.2500
vt 0.9755 0.6545 -0.2500
vt 0.7378 0.5773 -0.2500
vt 0.7939 0.9045 -0.2500
vt 0.6469 0.7023 -0.2500
vt 0.5000 0.5000 -0.2500
vt 0.5000 1.0000 0.2500
vt 0.2061 0.9045 0.2500
vt 0.3531 0.7023 0.2500
vt 0.5000 0.7500 0.2500
vt 0.0245 0.6545 0.2500
vt 0.2622 0.5773 0.2500
vt 0.0245 0.3455 0.2500
vt 0.2622 0.4227 0.2500
vt 0.2061 0.0955 0.2500
vt 0.3531 0.2977 0.2500
vt 0.5000 0.0000 0.2500
vt 0.5000 0.2500 0.2500
vt 0.7939 0.0955 0.2500
vt 0.6469 0.2977 0.2500
vt 0.9755 0.3455 0.2500
vt 0.7378 0.4227 0.2500
vt 0.9755 0.6545 0.2500
vt 0.7378 0.5773 0.2500
vt 0.7939 0.9045 0.2500
vt 0.6469 0.7023 0.2500
vt 0.5000 0.5000 0.2500
# 64 texture coords

g Cylinder001
s 8
f 1/1/1 2/2/2 3/3/2 4/4/3 
f 2/2/2 5/5/4 6/6/4 3/3/2 
f 5/5/4 7/7/5 8/8/5 6/6/4 
f 7/9/5 9/10/6 10/11/6 8/12/5 
f 9/10/6 11/13/7 12/14/8 10/11/6 
f 11/13/7 13/15/9 14/16/9 12/14/8 
f 13/15/9 15/17/10 16/18/10 14/16/9 
f 15/17/10 17/19/11 18/20/11 16/18/10 
f 17/19/11 19/21/12 20/22/12 18/20/11 
f 19/21/12 1/1/1 4/4/3 20/22/12 
s 1
f 2/23/13 1/24/14 21/25/13 22/26/13 
f 5/27/13 2/23/13 22/26/13 23/28/13 
f 7/29/14 5/27/13 23/28/13 24/30/14 
f 9/31/14 7/29/14 24/30/14 25/32/14 
f 11/33/14 9/31/14 25/32/14 26/34/13 
f 13/35/13 11/33/14 26/34/13 27/36/13 
f 15/37/13 13/35/13 27/36/13 28/38/13 
f 17/39/14 15/37/13 28/38/13 29/40/14 
f 19/41/14 17/39/14 29/40/14 30/42/14 
f 1/24/14 19/41/14 30/42/14 21/25/13 
f 31/26/14 32/25/13 33/43/13 
f 34/28/14 31/26/14 33/43/13 
f 35/30/13 34/28/14 33/43/13 
f 36/32/13 35/30/13 33/43/13 
f 37/34/13 36/32/13 33/43/13 
f 38/36/14 37/34/13 33/43/13 
f 39/38/14 38/36/14 33/43/13 
f 40/40/13 39/38/14 33/43/13 
f 41/42/13 40/40/13 33/43/13 
f 32/25/13 41/42/13 33/43/13 
f 4/44/15 3/45/15 42/46/15 43/47/15 
f 3/45/15 6/48/15 44/49/15 42/46/15 
f 6/48/15 8/50/15 45/51/15 44/49/15 
f 8/50/15 10/52/15 46/53/15 45/51/15 
f 10/52/15 12/54/15 47/55/15 46/53/15 
f 12/54/15 14/56/15 48/57/15 47/55/15 
f 14/56/15 16/58/15 49/59/15 48/57/15 
f 16/58/15 18/60/15 50/61/15 49/59/15 
f 18/60/15 20/62/15 51/63/15 50/61/15 
f 20/62/15 4/44/15 43/47/15 51/63/15 
f 52/47/15 53/46/15 54/64/15 
f 53/46/15 55/49/15 54/64/15 
f 55/49/15 56/51/15 54/64/15 
f 56/51/15 57/53/15 54/64/15 
f 57/53/15 58/55/15 54/64/15 
f 58/55/15 59/57/15 54/64/15 
f 59/57/15 60/59/15 54/64/15 
f 60/59/15 61/61/15 54/64/15 
f 61/61/15 62/63/15 54/64/15 
f 62/63/15 52/47/15 54/64/15 
s off
f 22/26/16 21/25/16 32/25/16 31/26/16 
f 21/25/17 30/42/17 41/42/17 32/25/17 
f 30/42/18 29/40/18 40/40/18 41/42/18 
f 29/40/19 28/38/19 39/38/19 40/40/19 
f 28/38/20 27/36/20 38/36/20 39/38/20 
f 27/36/21 26/34/21 37/34/21 38/36/21 
f 26/34/22 25/32/22 36/32/22 37/34/22 
f 25/32/23 24/30/23 35/30/23 36/32/23 
f 24/30/24 23/28/24 34/28/24 35/30/24 
f 23/28/25 22/26/25 31/26/25 34/28/25 
f 43/47/16 42/46/16 53/46/16 52/47/16 
f 42/46/25 44/49/25 55/49/25 53/46/25 
f 44/49/24 45/51/24 56/51/24 55/49/24 
f 45/51/23 46/53/23 57/53/23 56/51/23 
f 46/53/22 47/55/22 58/55/22 57/53/22 
f 47/55/21 48/57/21 59/57/21 58/55/21 
f 48/57/20 49/59/20 60/59/20 59/57/20 
f 49/59/19 50/61/19 61/61/19 60/59/19 
f 50/61/18 51/63/18 62/63/18 61/61/18 
f 51/63/17 43/47/17 52/47/17 62/63/17 
# 50 polygons - 20 triangles

