# 3ds Max Wavefront OBJ Exporter v0.97b - (c)2007 guruware
# File Created: 12.12.2015 16:18:59

#
# object thorn_head_2
#

v  -0.6478 81.9955 4.6701
v  -4.6536 81.9456 -2.3327
v  -11.4000 81.6439 5.3763
v  -15.6715 70.9202 11.1853
v  -0.1152 70.9202 8.1555
v  -7.9858 70.8702 -3.4778
v  -18.3144 70.9078 4.7328
v  -16.6507 60.9042 13.7613
v  -0.1896 60.9042 8.6410
v  -8.1296 60.8542 -3.8063
v  -20.8084 60.8918 3.6246
v  -12.9933 51.0368 13.7613
v  -0.1896 51.0368 8.6410
v  -8.1296 50.9868 -3.8063
v  -17.1510 51.0244 3.6246
v  -3.9832 39.7714 8.5342
v  -0.1896 39.7714 8.6410
v  -8.1296 39.7215 -3.4311
v  -8.1409 39.7590 3.6246
# 19 vertices

vn -0.0320 0.9994 0.0112
vn 0.1257 0.3708 0.9202
vn -0.6401 0.3565 -0.6806
vn -0.8031 0.4975 0.3280
vn 0.2445 0.1339 0.9604
vn -0.5570 0.1322 -0.8199
vn -0.9094 0.1850 0.3725
vn 0.3297 0.0611 0.9421
vn -0.5622 -0.1042 -0.8204
vn -0.8750 -0.3243 0.3593
vn 0.2875 -0.1059 0.9519
vn -0.8021 -0.3291 -0.4984
vn -0.6790 -0.6304 0.3763
vn 0.8336 -0.1633 -0.5277
vn 0.8501 -0.2056 -0.4848
vn 0.8347 -0.1661 -0.5250
vn 0.8209 -0.1351 -0.5548
vn 0.8375 -0.0091 -0.5463
vn 0.8279 -0.0333 -0.5600
vn 0.8341 -0.0179 -0.5513
vn 0.8431 0.0055 -0.5378
vn 0.8431 0.0000 -0.5378
vn 0.8399 -0.0105 -0.5426
vn 0.8430 -0.0179 -0.5377
vn 0.8387 -0.0076 -0.5445
vn 0.8355 0.0000 -0.5495
vn -0.0016 -1.0000 0.0050
vn -0.0018 -1.0000 0.0053
vn -0.0008 -1.0000 0.0038
vn -0.0001 -1.0000 0.0026
# 30 vertex normals

vt 0.3682 0.2636 0.0000
vt 0.5000 -0.0000 0.0000
vt 1.0000 1.0000 0.0000
vt 0.8624 0.8396 0.0000
vt 0.8761 0.7521 0.0000
# 5 texture coords

g thorn_head_2
s 1
f 1/1/1 2/2/1 3/3/1 
s off
f 1/1/2 3/3/2 4/4/2 5/1/2 
f 3/3/3 2/2/3 6/2/3 7/5/3 
f 4/4/4 3/3/4 7/5/4 
f 5/1/5 4/4/5 8/4/5 9/1/5 
f 7/5/6 6/2/6 10/2/6 11/5/6 
f 4/4/7 7/5/7 11/5/7 8/4/7 
f 9/1/8 8/4/8 12/4/8 13/1/8 
f 11/5/9 10/2/9 14/2/9 15/5/9 
f 8/4/10 11/5/10 15/5/10 12/4/10 
f 13/1/11 12/4/11 16/4/11 17/1/11 
f 15/5/12 14/2/12 18/2/12 19/5/12 
f 12/4/13 15/5/13 19/5/13 16/4/13 
s 2
f 6/2/14 2/2/15 1/1/16 5/4/17 
s 1
f 6/2/18 5/4/19 9/5/20 10/1/21 
s 2
f 10/1/22 9/5/22 13/5/22 14/1/22 
s 1
f 18/1/23 14/1/24 13/5/25 17/5/26 
s 2
f 19/2/27 18/1/28 17/5/29 16/4/30 
# 16 polygons - 2 triangles

#
# object thorn_head_1
#

v  -4.7139 81.9955 -2.2945
v  3.3536 81.9456 -2.2622
v  0.0506 81.6439 -11.9592
v  -2.8443 70.9202 -18.5630
v  -7.9986 70.9202 -3.5759
v  6.0114 70.8702 -4.5754
v  4.0651 70.9078 -17.6255
v  -4.5856 60.9042 -20.6990
v  -8.3819 60.9042 -3.8831
v  6.3678 60.8542 -4.5357
v  6.2719 60.8918 -19.2313
v  -6.4144 51.0368 -17.5316
v  -8.3819 51.0368 -3.8831
v  6.3678 50.9868 -4.5357
v  4.4432 51.0244 -16.0639
v  -6.3926 39.7714 -7.1151
v  -8.3819 39.7714 -3.8831
v  6.0429 39.7215 -4.7233
v  -0.0619 39.7590 -8.2609
# 19 vertices

vn 0.0063 0.9994 -0.0332
vn -0.8598 0.3708 -0.3512
vn 0.9095 0.3565 -0.2140
vn 0.1175 0.4975 -0.8594
vn -0.9539 0.1339 -0.2685
vn 0.9886 0.1322 -0.0724
vn 0.1321 0.1850 -0.9738
vn -0.9807 0.0611 -0.1856
vn 0.9916 -0.1042 -0.0767
vn 0.1264 -0.3243 -0.9375
vn -0.9681 -0.1059 -0.2269
vn 0.8327 -0.3291 -0.4454
vn 0.0136 -0.6304 -0.7762
vn 0.0402 -0.1633 0.9857
vn -0.0052 -0.2056 0.9786
vn 0.0373 -0.1661 0.9854
vn 0.0700 -0.1351 0.9884
vn 0.0544 -0.0091 0.9985
vn 0.0710 -0.0333 0.9969
vn 0.0604 -0.0179 0.9980
vn 0.0442 0.0055 0.9990
vn 0.0442 0.0000 0.9990
vn 0.0499 -0.0105 0.9987
vn 0.0441 -0.0179 0.9989
vn 0.0522 -0.0076 0.9986
vn 0.0581 0.0000 0.9983
vn -0.0035 -1.0000 -0.0039
vn -0.0037 -1.0000 -0.0042
vn -0.0029 -1.0000 -0.0026
vn -0.0022 -1.0000 -0.0014
# 30 vertex normals

vt 0.3682 0.2636 0.0000
vt 0.5000 -0.0000 0.0000
vt 1.0000 1.0000 0.0000
vt 0.8624 0.8396 0.0000
vt 0.8761 0.7521 0.0000
# 5 texture coords

g thorn_head_1
s 1
f 20/6/31 21/7/31 22/8/31 
s off
f 20/6/32 22/8/32 23/9/32 24/6/32 
f 22/8/33 21/7/33 25/7/33 26/10/33 
f 23/9/34 22/8/34 26/10/34 
f 24/6/35 23/9/35 27/9/35 28/6/35 
f 26/10/36 25/7/36 29/7/36 30/10/36 
f 23/9/37 26/10/37 30/10/37 27/9/37 
f 28/6/38 27/9/38 31/9/38 32/6/38 
f 30/10/39 29/7/39 33/7/39 34/10/39 
f 27/9/40 30/10/40 34/10/40 31/9/40 
f 32/6/41 31/9/41 35/9/41 36/6/41 
f 34/10/42 33/7/42 37/7/42 38/10/42 
f 31/9/43 34/10/43 38/10/43 35/9/43 
s 2
f 25/7/44 21/7/45 20/6/46 24/9/47 
s 1
f 25/7/48 24/9/49 28/10/50 29/6/51 
s 2
f 29/6/52 28/10/52 32/10/52 33/6/52 
s 1
f 37/6/53 33/6/54 32/10/55 36/10/56 
s 2
f 38/7/57 37/6/58 36/10/59 35/9/60 
# 16 polygons - 2 triangles

#
# object thorn_head_3
#

v  3.5416 81.9955 -1.9392
v  -0.5201 81.9456 5.0313
v  9.5293 81.6439 7.0193
v  16.6957 70.9202 7.8141
v  6.2938 70.9202 -4.1432
v  0.1543 70.8702 8.4896
v  12.4292 70.9078 13.3291
v  19.4163 60.9042 7.3741
v  6.7514 60.9042 -4.3215
v  -0.0583 60.8542 8.7784
v  12.7165 60.8918 16.0431
v  17.5876 51.0368 4.2067
v  6.7514 51.0368 -4.3215
v  -0.0583 50.9868 8.7784
v  10.8877 51.0244 12.8757
v  8.5557 39.7714 -0.9827
v  6.7514 39.7714 -4.3215
v  0.2666 39.7215 8.5908
v  6.3827 39.7590 5.0728
# 19 vertices

vn 0.0256 0.9994 0.0221
vn 0.7340 0.3708 -0.5690
vn -0.2694 0.3565 0.8946
vn 0.6856 0.4975 0.5315
vn 0.7095 0.1339 -0.6919
vn -0.4316 0.1322 0.8923
vn 0.7773 0.1850 0.6013
vn 0.6511 0.0611 -0.7566
vn -0.4294 -0.1042 0.8971
vn 0.7487 -0.3243 0.5782
vn 0.6806 -0.1059 -0.7250
vn -0.0306 -0.3291 0.9438
vn 0.6654 -0.6304 0.3999
vn -0.8738 -0.1633 -0.4581
vn -0.8449 -0.2056 -0.4938
vn -0.8720 -0.1661 -0.4604
vn -0.8910 -0.1351 -0.4335
vn -0.8919 -0.0091 -0.4522
vn -0.8989 -0.0333 -0.4370
vn -0.8945 -0.0179 -0.4467
vn -0.8873 0.0055 -0.4612
vn -0.8873 0.0000 -0.4612
vn -0.8899 -0.0105 -0.4561
vn -0.8871 -0.0179 -0.4612
vn -0.8909 -0.0076 -0.4541
vn -0.8936 0.0000 -0.4488
vn 0.0051 -1.0000 -0.0011
vn 0.0055 -1.0000 -0.0011
vn 0.0037 -1.0000 -0.0012
vn 0.0023 -1.0000 -0.0012
# 30 vertex normals

vt 0.3682 0.2636 0.0000
vt 0.5000 -0.0000 0.0000
vt 1.0000 1.0000 0.0000
vt 0.8624 0.8396 0.0000
vt 0.8761 0.7521 0.0000
# 5 texture coords

g thorn_head_3
s 1
f 39/11/61 40/12/61 41/13/61 
s off
f 39/11/62 41/13/62 42/14/62 43/11/62 
f 41/13/63 40/12/63 44/12/63 45/15/63 
f 42/14/64 41/13/64 45/15/64 
f 43/11/65 42/14/65 46/14/65 47/11/65 
f 45/15/66 44/12/66 48/12/66 49/15/66 
f 42/14/67 45/15/67 49/15/67 46/14/67 
f 47/11/68 46/14/68 50/14/68 51/11/68 
f 49/15/69 48/12/69 52/12/69 53/15/69 
f 46/14/70 49/15/70 53/15/70 50/14/70 
f 51/11/71 50/14/71 54/14/71 55/11/71 
f 53/15/72 52/12/72 56/12/72 57/15/72 
f 50/14/73 53/15/73 57/15/73 54/14/73 
s 2
f 44/12/74 40/12/75 39/11/76 43/14/77 
s 1
f 44/12/78 43/14/79 47/15/80 48/11/81 
s 2
f 48/11/82 47/15/82 51/15/82 52/11/82 
s 1
f 56/11/83 52/11/84 51/15/85 55/15/86 
s 2
f 57/12/87 56/11/88 55/15/89 54/14/90 
# 16 polygons - 2 triangles

#
# object thorn_body_1
#

v  -0.7564 28.1293 20.3072
v  -9.9864 17.1294 14.3593
v  10.2435 18.8993 14.3593
v  -13.8096 12.5731 0.0000
v  1.0135 7.8994 0.0000
v  14.7998 15.0761 0.0000
v  8.4736 39.1292 14.3593
v  19.4735 29.8992 0.0000
v  12.2968 43.6855 0.0000
v  -11.7563 37.3593 14.3593
v  -2.5263 48.3592 -0.0000
v  -16.3126 41.1825 -0.0000
v  -20.9863 26.3594 -0.0000
v  -0.7564 28.1293 -20.3072
v  10.2435 18.8993 -14.3593
v  -9.9864 17.1294 -14.3593
v  8.4736 39.1292 -14.3593
v  -11.7563 37.3593 -14.3593
# 18 vertices

vn -0.0000 0.0000 1.0000
vn -0.4545 -0.5417 0.7071
vn 0.5417 -0.4545 0.7071
vn -0.6428 -0.7660 0.0000
vn 0.0872 -0.9962 0.0000
vn 0.7660 -0.6428 0.0000
vn 0.4545 0.5417 0.7071
vn 0.9962 0.0872 0.0000
vn 0.6428 0.7660 0.0000
vn -0.5417 0.4545 0.7071
vn -0.0872 0.9962 -0.0000
vn -0.7660 0.6428 -0.0000
vn -0.9962 -0.0872 -0.0000
vn 0.0000 -0.0000 -1.0000
vn 0.5417 -0.4545 -0.7071
vn -0.4545 -0.5417 -0.7071
vn 0.4545 0.5417 -0.7071
vn -0.5417 0.4545 -0.7071
# 18 vertex normals

vt 0.6250 1.0000 20.3072
vt 0.5000 0.7500 20.3072
vt 0.7500 0.7500 20.3072
vt 0.5000 0.5000 20.3072
vt 0.6250 0.5000 20.3072
vt 0.7500 0.5000 20.3072
vt 0.8750 1.0000 20.3072
vt 1.0000 0.7500 20.3072
vt 0.8750 0.5000 20.3072
vt 1.0000 0.5000 20.3072
vt 0.1250 1.0000 20.3072
vt 0.0000 0.7500 20.3072
vt 0.2500 0.7500 20.3072
vt 0.0000 0.5000 20.3072
vt 0.1250 0.5000 20.3072
vt 0.2500 0.5000 20.3072
vt 0.3750 1.0000 20.3072
vt 0.3750 0.5000 20.3072
vt 0.6250 0.0000 20.3072
vt 0.7500 0.2500 20.3072
vt 0.5000 0.2500 20.3072
vt 0.8750 0.0000 20.3072
vt 1.0000 0.2500 20.3072
vt 0.1250 0.0000 20.3072
vt 0.2500 0.2500 20.3072
vt 0.0000 0.2500 20.3072
vt 0.3750 0.0000 20.3072
# 27 texture coords

g thorn_body_1
s 1
f 58/16/91 59/17/92 60/18/93 
f 59/17/92 61/19/94 62/20/95 
f 59/17/92 62/20/95 60/18/93 
f 60/18/93 62/20/95 63/21/96 
f 58/22/91 60/18/93 64/23/97 
f 60/18/93 63/21/96 65/24/98 
f 60/18/93 65/24/98 64/23/97 
f 64/23/97 65/24/98 66/25/99 
f 58/26/91 64/27/97 67/28/100 
f 64/27/97 66/29/99 68/30/101 
f 64/27/97 68/30/101 67/28/100 
f 67/28/100 68/30/101 69/31/102 
f 58/32/91 67/28/100 59/17/92 
f 67/28/100 69/31/102 70/33/103 
f 67/28/100 70/33/103 59/17/92 
f 59/17/92 70/33/103 61/19/94 
f 71/34/104 72/35/105 73/36/106 
f 72/35/105 63/21/96 62/20/95 
f 72/35/105 62/20/95 73/36/106 
f 73/36/106 62/20/95 61/19/94 
f 71/37/104 74/38/107 72/35/105 
f 74/38/107 66/25/99 65/24/98 
f 74/38/107 65/24/98 72/35/105 
f 72/35/105 65/24/98 63/21/96 
f 71/39/104 75/40/108 74/41/107 
f 75/40/108 69/31/102 68/30/101 
f 75/40/108 68/30/101 74/41/107 
f 74/41/107 68/30/101 66/29/99 
f 71/42/104 73/36/106 75/40/108 
f 73/36/106 61/19/94 70/33/103 
f 73/36/106 70/33/103 75/40/108 
f 75/40/108 70/33/103 69/31/102 
# 0 polygons - 32 triangles

#
# object thorn_body_2
#

v  -19.8389 -4.2428 6.2947
v  -3.0782 -9.8334 18.2839
v  -7.3707 10.8067 14.8956
v  -14.3162 12.8913 -5.1875
v  -14.3162 -6.4604 -14.2113
v  -7.3707 -20.5050 0.2948
v  12.8033 -15.5062 5.1875
v  12.8033 3.8455 14.2113
v  5.8578 17.8901 -0.2948
v  1.5653 7.2184 -18.2839
v  5.8579 -13.4216 -14.8956
v  18.3261 1.6278 -6.2947
# 12 vertices

vn -0.9397 -0.1445 0.3100
vn -0.1143 -0.4198 0.9004
vn -0.3257 0.5965 0.7335
vn -0.6677 0.6992 -0.2555
vn -0.6677 -0.2537 -0.6998
vn -0.3257 -0.9454 0.0145
vn 0.6677 -0.6992 0.2555
vn 0.6677 0.2537 0.6998
vn 0.3257 0.9454 -0.0145
vn 0.1143 0.4198 -0.9004
vn 0.3257 -0.5965 -0.7335
vn 0.9397 0.1445 -0.3100
# 12 vertex normals

vt 0.6000 1.0000 20.3072
vt 0.5000 0.6476 20.3072
vt 0.7000 0.6476 20.3072
vt 0.8000 1.0000 20.3072
vt 0.9000 0.6476 20.3072
vt 0.0000 1.0000 20.3072
vt -0.1000 0.6476 20.3072
vt 0.1000 0.6476 20.3072
vt 0.2000 1.0000 20.3072
vt 0.3000 0.6476 20.3072
vt 0.4000 1.0000 20.3072
vt 0.4000 0.3524 20.3072
vt 0.6000 0.3524 20.3072
vt 0.8000 0.3524 20.3072
vt -0.2000 0.3524 20.3072
vt 0.0000 0.3524 20.3072
vt 0.2000 0.3524 20.3072
vt 0.7000 0.0000 20.3072
vt -0.1000 0.0000 20.3072
vt 0.1000 0.0000 20.3072
vt 0.3000 0.0000 20.3072
vt 0.5000 0.0000 20.3072
# 22 texture coords

g thorn_body_2
s 1
f 76/43/109 77/44/110 78/45/111 
f 76/46/109 78/45/111 79/47/112 
f 76/48/109 79/49/112 80/50/113 
f 76/51/109 80/50/113 81/52/114 
f 76/53/109 81/52/114 77/44/110 
f 77/44/110 82/54/115 83/55/116 
f 78/45/111 83/55/116 84/56/117 
f 79/49/112 84/57/117 85/58/118 
f 80/50/113 85/58/118 86/59/119 
f 81/52/114 86/59/119 82/54/115 
f 83/55/116 78/45/111 77/44/110 
f 84/56/117 79/47/112 78/45/111 
f 85/58/118 80/50/113 79/49/112 
f 86/59/119 81/52/114 80/50/113 
f 82/54/115 77/44/110 81/52/114 
f 87/60/120 84/56/117 83/55/116 
f 87/61/120 85/58/118 84/57/117 
f 87/62/120 86/59/119 85/58/118 
f 87/63/120 82/54/115 86/59/119 
f 87/64/120 83/55/116 82/54/115 
# 0 polygons - 20 triangles

#
# object thorn_body_3
#

v  -8.9926 -20.7623 16.6347
v  1.7370 -31.4920 19.9987
v  3.5733 -13.0211 11.7625
v  11.0061 -40.7610 11.6477
v  17.7145 -27.1622 8.2362
v  13.6029 -14.6392 0.0000
v  -14.8976 -14.8573 3.5263
v  1.0798 -10.5276 -8.2362
v  -12.5189 -17.2360 -11.6477
v  -16.7339 -33.3282 11.7625
v  -19.2273 -30.8348 -8.2362
v  -15.1158 -43.3578 -0.0000
v  -2.5927 -47.4694 8.2362
v  7.4798 -37.2347 -16.6347
v  15.2210 -24.6688 -11.7625
v  13.3848 -43.1397 -3.5263
v  -3.2499 -26.5050 -19.9987
v  -5.0861 -44.9759 -11.7625
# 18 vertices

vn -0.4056 0.4056 0.8192
vn 0.1228 -0.1228 0.9848
vn 0.2132 0.7868 0.5792
vn 0.5792 -0.5792 0.5736
vn 0.9096 0.0904 0.4056
vn 0.7071 0.7071 0.0000
vn -0.6964 0.6964 0.1736
vn 0.0904 0.9096 -0.4056
vn -0.5792 0.5792 -0.5736
vn -0.7868 -0.2132 0.5792
vn -0.9096 -0.0904 -0.4056
vn -0.7071 -0.7071 -0.0000
vn -0.0904 -0.9096 0.4056
vn 0.4056 -0.4056 -0.8192
vn 0.7868 0.2132 -0.5792
vn 0.6964 -0.6964 -0.1736
vn -0.1228 0.1228 -0.9848
vn -0.2132 -0.7868 -0.5792
# 18 vertex normals

vt 0.6250 1.0000 20.3072
vt 0.5000 0.7500 20.3072
vt 0.7500 0.7500 20.3072
vt 0.5000 0.5000 20.3072
vt 0.6250 0.5000 20.3072
vt 0.7500 0.5000 20.3072
vt 0.8750 1.0000 20.3072
vt 1.0000 0.7500 20.3072
vt 0.8750 0.5000 20.3072
vt 1.0000 0.5000 20.3072
vt 0.1250 1.0000 20.3072
vt 0.0000 0.7500 20.3072
vt 0.2500 0.7500 20.3072
vt 0.0000 0.5000 20.3072
vt 0.1250 0.5000 20.3072
vt 0.2500 0.5000 20.3072
vt 0.3750 1.0000 20.3072
vt 0.3750 0.5000 20.3072
vt 0.6250 0.0000 20.3072
vt 0.7500 0.2500 20.3072
vt 0.5000 0.2500 20.3072
vt 0.8750 0.0000 20.3072
vt 1.0000 0.2500 20.3072
vt 0.1250 0.0000 20.3072
vt 0.2500 0.2500 20.3072
vt 0.0000 0.2500 20.3072
vt 0.3750 0.0000 20.3072
# 27 texture coords

g thorn_body_3
s 1
f 88/65/121 89/66/122 90/67/123 
f 89/66/122 91/68/124 92/69/125 
f 89/66/122 92/69/125 90/67/123 
f 90/67/123 92/69/125 93/70/126 
f 88/71/121 90/67/123 94/72/127 
f 90/67/123 93/70/126 95/73/128 
f 90/67/123 95/73/128 94/72/127 
f 94/72/127 95/73/128 96/74/129 
f 88/75/121 94/76/127 97/77/130 
f 94/76/127 96/78/129 98/79/131 
f 94/76/127 98/79/131 97/77/130 
f 97/77/130 98/79/131 99/80/132 
f 88/81/121 97/77/130 89/66/122 
f 97/77/130 99/80/132 100/82/133 
f 97/77/130 100/82/133 89/66/122 
f 89/66/122 100/82/133 91/68/124 
f 101/83/134 102/84/135 103/85/136 
f 102/84/135 93/70/126 92/69/125 
f 102/84/135 92/69/125 103/85/136 
f 103/85/136 92/69/125 91/68/124 
f 101/86/134 104/87/137 102/84/135 
f 104/87/137 96/74/129 95/73/128 
f 104/87/137 95/73/128 102/84/135 
f 102/84/135 95/73/128 93/70/126 
f 101/88/134 105/89/138 104/90/137 
f 105/89/138 99/80/132 98/79/131 
f 105/89/138 98/79/131 104/90/137 
f 104/90/137 98/79/131 96/78/129 
f 101/91/134 103/85/136 105/89/138 
f 103/85/136 91/68/124 100/82/133 
f 103/85/136 100/82/133 105/89/138 
f 105/89/138 100/82/133 99/80/132 
# 0 polygons - 32 triangles

#
# object thorn_body_4
#

v  16.8301 -45.4363 1.7632
v  18.8588 -60.6116 -0.9127
v  11.6791 -45.8715 -12.8945
v  9.3972 -72.7550 -3.0539
v  6.4233 -65.1888 -16.3006
v  -0.7564 -51.9093 -19.9987
v  4.4995 -36.1184 3.4061
v  -7.9361 -40.6955 -11.9818
v  -10.9100 -38.1163 3.0539
v  11.6791 -50.8585 15.3879
v  -7.9361 -45.6824 16.3006
v  -0.7564 -58.9619 19.9987
v  6.4232 -70.1757 11.9818
v  -18.3430 -65.4349 -1.7632
v  -13.1920 -60.0127 -15.3879
v  -6.0123 -74.7528 -3.4062
v  -20.3717 -50.2596 0.9127
v  -13.1920 -64.9997 12.8945
# 18 vertices

vn 0.8660 0.4924 0.0868
vn 0.9659 -0.2549 -0.0449
vn 0.6124 0.4710 -0.6350
vn 0.5000 -0.8529 -0.1504
vn 0.3536 -0.4803 -0.8027
vn 0.0000 0.1736 -0.9848
vn 0.2588 0.9513 0.1677
vn -0.3536 0.7259 -0.5900
vn -0.5000 0.8529 0.1504
vn 0.6124 0.2254 0.7578
vn -0.3536 0.4803 0.8027
vn -0.0000 -0.1736 0.9848
vn 0.3536 -0.7259 0.5900
vn -0.8660 -0.4924 -0.0868
vn -0.6124 -0.2254 -0.7578
vn -0.2588 -0.9513 -0.1677
vn -0.9659 0.2549 0.0449
vn -0.6124 -0.4710 0.6350
# 18 vertex normals

vt 0.6250 1.0000 20.3072
vt 0.5000 0.7500 20.3072
vt 0.7500 0.7500 20.3072
vt 0.5000 0.5000 20.3072
vt 0.6250 0.5000 20.3072
vt 0.7500 0.5000 20.3072
vt 0.8750 1.0000 20.3072
vt 1.0000 0.7500 20.3072
vt 0.8750 0.5000 20.3072
vt 1.0000 0.5000 20.3072
vt 0.1250 1.0000 20.3072
vt 0.0000 0.7500 20.3072
vt 0.2500 0.7500 20.3072
vt 0.0000 0.5000 20.3072
vt 0.1250 0.5000 20.3072
vt 0.2500 0.5000 20.3072
vt 0.3750 1.0000 20.3072
vt 0.3750 0.5000 20.3072
vt 0.6250 0.0000 20.3072
vt 0.7500 0.2500 20.3072
vt 0.5000 0.2500 20.3072
vt 0.8750 0.0000 20.3072
vt 1.0000 0.2500 20.3072
vt 0.1250 0.0000 20.3072
vt 0.2500 0.2500 20.3072
vt 0.0000 0.2500 20.3072
vt 0.3750 0.0000 20.3072
# 27 texture coords

g thorn_body_4
s 1
f 106/92/139 107/93/140 108/94/141 
f 107/93/140 109/95/142 110/96/143 
f 107/93/140 110/96/143 108/94/141 
f 108/94/141 110/96/143 111/97/144 
f 106/98/139 108/94/141 112/99/145 
f 108/94/141 111/97/144 113/100/146 
f 108/94/141 113/100/146 112/99/145 
f 112/99/145 113/100/146 114/101/147 
f 106/102/139 112/103/145 115/104/148 
f 112/103/145 114/105/147 116/106/149 
f 112/103/145 116/106/149 115/104/148 
f 115/104/148 116/106/149 117/107/150 
f 106/108/139 115/104/148 107/93/140 
f 115/104/148 117/107/150 118/109/151 
f 115/104/148 118/109/151 107/93/140 
f 107/93/140 118/109/151 109/95/142 
f 119/110/152 120/111/153 121/112/154 
f 120/111/153 111/97/144 110/96/143 
f 120/111/153 110/96/143 121/112/154 
f 121/112/154 110/96/143 109/95/142 
f 119/113/152 122/114/155 120/111/153 
f 122/114/155 114/101/147 113/100/146 
f 122/114/155 113/100/146 120/111/153 
f 120/111/153 113/100/146 111/97/144 
f 119/115/152 123/116/156 122/117/155 
f 123/116/156 117/107/150 116/106/149 
f 123/116/156 116/106/149 122/117/155 
f 122/117/155 116/106/149 114/105/147 
f 119/118/152 121/112/154 123/116/156 
f 121/112/154 109/95/142 118/109/151 
f 121/112/154 118/109/151 123/116/156 
f 123/116/156 118/109/151 117/107/150 
# 0 polygons - 32 triangles

#
# object thorn_body_5
#

v  -6.3265 -73.4266 -12.7058
v  -0.8516 -85.9111 -20.1711
v  -17.9580 -83.2433 -9.5581
v  4.6790 -99.7694 -15.8204
v  -10.1760 -101.8705 -11.7604
v  -19.5131 -95.9965 -0.8114
v  -8.5385 -69.6291 2.2024
v  -17.8628 -85.5884 10.6130
v  -6.1918 -76.7432 15.8204
v  8.5679 -72.2970 -8.4106
v  8.6631 -74.6421 11.7604
v  18.0002 -80.5161 0.8114
v  16.3499 -90.9241 -10.6130
v  4.8136 -103.0859 12.7058
v  -10.0808 -104.2156 8.4106
v  7.0256 -106.8834 -2.2024
v  -0.6612 -90.6014 20.1711
v  16.4452 -93.2693 9.5581
# 18 vertices

vn -0.2743 0.7303 -0.6257
vn -0.0047 0.1155 -0.9933
vn -0.8471 0.2469 -0.4707
vn 0.2677 -0.5669 -0.7791
vn -0.4639 -0.6704 -0.5791
vn -0.9236 -0.3812 -0.0400
vn -0.3832 0.9173 0.1085
vn -0.8424 0.1314 0.5226
vn -0.2677 0.5669 0.7791
vn 0.4592 0.7859 -0.4142
vn 0.4639 0.6704 0.5791
vn 0.9236 0.3812 0.0400
vn 0.8424 -0.1314 -0.5226
vn 0.2743 -0.7303 0.6257
vn -0.4592 -0.7859 0.4142
vn 0.3832 -0.9173 -0.1085
vn 0.0047 -0.1155 0.9933
vn 0.8471 -0.2469 0.4707
# 18 vertex normals

vt 0.6250 1.0000 20.3072
vt 0.5000 0.7500 20.3072
vt 0.7500 0.7500 20.3072
vt 0.5000 0.5000 20.3072
vt 0.6250 0.5000 20.3072
vt 0.7500 0.5000 20.3072
vt 0.8750 1.0000 20.3072
vt 1.0000 0.7500 20.3072
vt 0.8750 0.5000 20.3072
vt 1.0000 0.5000 20.3072
vt 0.1250 1.0000 20.3072
vt 0.0000 0.7500 20.3072
vt 0.2500 0.7500 20.3072
vt 0.0000 0.5000 20.3072
vt 0.1250 0.5000 20.3072
vt 0.2500 0.5000 20.3072
vt 0.3750 1.0000 20.3072
vt 0.3750 0.5000 20.3072
vt 0.6250 0.0000 20.3072
vt 0.7500 0.2500 20.3072
vt 0.5000 0.2500 20.3072
vt 0.8750 0.0000 20.3072
vt 1.0000 0.2500 20.3072
vt 0.1250 0.0000 20.3072
vt 0.2500 0.2500 20.3072
vt 0.0000 0.2500 20.3072
vt 0.3750 0.0000 20.3072
# 27 texture coords

g thorn_body_5
s 1
f 124/119/157 125/120/158 126/121/159 
f 125/120/158 127/122/160 128/123/161 
f 125/120/158 128/123/161 126/121/159 
f 126/121/159 128/123/161 129/124/162 
f 124/125/157 126/121/159 130/126/163 
f 126/121/159 129/124/162 131/127/164 
f 126/121/159 131/127/164 130/126/163 
f 130/126/163 131/127/164 132/128/165 
f 124/129/157 130/130/163 133/131/166 
f 130/130/163 132/132/165 134/133/167 
f 130/130/163 134/133/167 133/131/166 
f 133/131/166 134/133/167 135/134/168 
f 124/135/157 133/131/166 125/120/158 
f 133/131/166 135/134/168 136/136/169 
f 133/131/166 136/136/169 125/120/158 
f 125/120/158 136/136/169 127/122/160 
f 137/137/170 138/138/171 139/139/172 
f 138/138/171 129/124/162 128/123/161 
f 138/138/171 128/123/161 139/139/172 
f 139/139/172 128/123/161 127/122/160 
f 137/140/170 140/141/173 138/138/171 
f 140/141/173 132/128/165 131/127/164 
f 140/141/173 131/127/164 138/138/171 
f 138/138/171 131/127/164 129/124/162 
f 137/142/170 141/143/174 140/144/173 
f 141/143/174 135/134/168 134/133/167 
f 141/143/174 134/133/167 140/144/173 
f 140/144/173 134/133/167 132/132/165 
f 137/145/170 139/139/172 141/143/174 
f 139/139/172 127/122/160 136/136/169 
f 139/139/172 136/136/169 141/143/174 
f 141/143/174 136/136/169 135/134/168 
# 0 polygons - 32 triangles

#
# object thorn_body_6
#

v  3.5417 -104.6928 -12.4857
v  4.2924 -100.6094 2.4919
v  16.1722 -112.8431 -8.5348
v  2.0856 -107.9554 16.0098
v  15.1426 -115.1501 11.6146
v  18.8861 -125.2565 0.4157
v  0.2732 -117.8135 -20.1494
v  11.1233 -132.3542 -11.0267
v  -3.5985 -132.2856 -16.0098
v  -11.6066 -105.5798 -9.1227
v  -16.6554 -125.0908 -11.6146
v  -20.3990 -114.9845 -0.4157
v  -12.6362 -107.8868 11.0267
v  -5.0546 -135.5482 12.4857
v  10.0937 -134.6612 9.1227
v  -1.7860 -122.4275 20.1494
v  -5.8053 -139.6315 -2.4919
v  -17.6851 -127.3978 8.5348
# 18 vertices

vn 0.2117 0.7597 -0.6148
vn 0.2486 0.9608 0.1227
vn 0.8336 0.3584 -0.4203
vn 0.1400 0.5991 0.7884
vn 0.7829 0.2448 0.5719
vn 0.9673 -0.2529 0.0205
vn 0.0507 0.1136 -0.9922
vn 0.5850 -0.6024 -0.5430
vn -0.1400 -0.5991 -0.7884
vn -0.5343 0.7160 -0.4492
vn -0.7829 -0.2448 -0.5719
vn -0.9673 0.2529 -0.0205
vn -0.5850 0.6024 0.5430
vn -0.2117 -0.7597 0.6148
vn 0.5343 -0.7160 0.4492
vn -0.0507 -0.1136 0.9922
vn -0.2486 -0.9608 -0.1227
vn -0.8336 -0.3584 0.4203
# 18 vertex normals

vt 0.6250 1.0000 20.3072
vt 0.5000 0.7500 20.3072
vt 0.7500 0.7500 20.3072
vt 0.5000 0.5000 20.3072
vt 0.6250 0.5000 20.3072
vt 0.7500 0.5000 20.3072
vt 0.8750 1.0000 20.3072
vt 1.0000 0.7500 20.3072
vt 0.8750 0.5000 20.3072
vt 1.0000 0.5000 20.3072
vt 0.1250 1.0000 20.3072
vt 0.0000 0.7500 20.3072
vt 0.2500 0.7500 20.3072
vt 0.0000 0.5000 20.3072
vt 0.1250 0.5000 20.3072
vt 0.2500 0.5000 20.3072
vt 0.3750 1.0000 20.3072
vt 0.3750 0.5000 20.3072
vt 0.6250 0.0000 20.3072
vt 0.7500 0.2500 20.3072
vt 0.5000 0.2500 20.3072
vt 0.8750 0.0000 20.3072
vt 1.0000 0.2500 20.3072
vt 0.1250 0.0000 20.3072
vt 0.2500 0.2500 20.3072
vt 0.0000 0.2500 20.3072
vt 0.3750 0.0000 20.3072
# 27 texture coords

g thorn_body_6
s 1
f 142/146/175 143/147/176 144/148/177 
f 143/147/176 145/149/178 146/150/179 
f 143/147/176 146/150/179 144/148/177 
f 144/148/177 146/150/179 147/151/180 
f 142/152/175 144/148/177 148/153/181 
f 144/148/177 147/151/180 149/154/182 
f 144/148/177 149/154/182 148/153/181 
f 148/153/181 149/154/182 150/155/183 
f 142/156/175 148/157/181 151/158/184 
f 148/157/181 150/159/183 152/160/185 
f 148/157/181 152/160/185 151/158/184 
f 151/158/184 152/160/185 153/161/186 
f 142/162/175 151/158/184 143/147/176 
f 151/158/184 153/161/186 154/163/187 
f 151/158/184 154/163/187 143/147/176 
f 143/147/176 154/163/187 145/149/178 
f 155/164/188 156/165/189 157/166/190 
f 156/165/189 147/151/180 146/150/179 
f 156/165/189 146/150/179 157/166/190 
f 157/166/190 146/150/179 145/149/178 
f 155/167/188 158/168/191 156/165/189 
f 158/168/191 150/155/183 149/154/182 
f 158/168/191 149/154/182 156/165/189 
f 156/165/189 149/154/182 147/151/180 
f 155/169/188 159/170/192 158/171/191 
f 159/170/192 153/161/186 152/160/185 
f 159/170/192 152/160/185 158/171/191 
f 158/171/191 152/160/185 150/159/183 
f 155/172/188 157/166/190 159/170/192 
f 157/166/190 145/149/178 154/163/187 
f 157/166/190 154/163/187 159/170/192 
f 159/170/192 154/163/187 153/161/186 
# 0 polygons - 32 triangles

